# xmcd CD database file
#
# Track frame offsets:
#	183
#	14615
#	28493
#	42548
#	56188
#	68958
#	85195
#	99533
#	112528
#	124160
#	137583
#	153558
#	168405
#	182540
#
# Disc length: 2624 seconds
#
# Revision: 0
# Processed by: cddbd v1.5.1PL0 Copyright (c) Steve Scherf et al.
# Submitted via: CDex 1.50
#
DISCID=c00a3e0e
DTITLE=Duke Ellington - Jazz Tribune 21
DYEAR=1900
DGENRE=Jazz
TTITLE0=Creole love call
TTITLE1=The blue I love to sing
TTITLE2=Black and tan fantasy
TTITLE3=Washington wobble
TTITLE4=Harlem river quiver
TTITLE5=East St-Louis toodle-oo
TTITLE6=Blue bubbles
TTITLE7=Black beauty
TTITLE8=Jubilee stomp
TTITLE9=Got everything but you
TTITLE10=The mooche
TTITLE11=Flaming youth
TTITLE12=Saturday night function
TTITLE13=High life
EXTD=
EXTT0=
EXTT1=
EXTT2=
EXTT3=
EXTT4=
EXTT5=
EXTT6=
EXTT7=
EXTT8=
EXTT9=
EXTT10=
EXTT11=
EXTT12=
EXTT13=
PLAYORDER=
